<?xml version="1.0" standalone="no"?>
<!DOCTYPE svg PUBLIC "-//W3C//DTD SVG 1.1//EN"
  "http://www.w3.org/Graphics/SVG/1.1/DTD/svg11.dtd">
<svg width="1600" height="1200" version="1.1"
  xmlns="http://www.w3.org/2000/svg">
<g style="stroke:#000000;stroke-width:1;"><line x1="0" y1="0" x2="0" y2="1200"/><line x1="320" y1="0" x2="320" y2="1200"/><line x1="640" y1="0" x2="640" y2="1200"/><line x1="960" y1="0" x2="960" y2="1200"/><line x1="1280" y1="0" x2="1280" y2="1200"/><line x1="0" y1="1200" x2="1600" y2="1200"/><line x1="0" y1="600" x2="1600" y2="600"/></g><g style="fill:#000000;"><text x="15" y="1185"><tspan x="15" dy="0em">0.00</tspan></text><text x="335" y="1185"><tspan x="335" dy="0em">1.00</tspan></text><text x="655" y="1185"><tspan x="655" dy="0em">2.00</tspan></text><text x="975" y="1185"><tspan x="975" dy="0em">3.00</tspan></text><text x="1295" y="1185"><tspan x="1295" dy="0em">4.00</tspan></text><text x="15" y="1215"><tspan x="15" dy="0em">0.00</tspan></text><text x="15" y="615"><tspan x="15" dy="0em">1.00</tspan></text></g><g style="stroke:#000000;stroke-width:2;"><line x1="0" y1="0" x2="0" y2="1200"/><line x1="0" y1="1200" x2="1600" y2="1200"/></g><g style="fill:#000000;"><text x="15" y="1185"><tspan x="15" dy="0em">0.00</tspan></text><text x="15" y="1215"><tspan x="15" dy="0em">0.00</tspan></text></g><g style="fill:#000000;"><text x="800" y="1160" font-size="10px"></text><text x="600" y="-40" font-size="10px" style="transform:rotate(90 0,0);"></text></g><g style="stroke:blue;stroke-width:1;"><circle cx="0" cy="1200" r="2" style="fill:blue;"/><circle cx="320" cy="600" r="2" style="fill:blue;"/><line x1="0" y1="1200" x2="320" y2="600"/><circle cx="320" cy="600" r="2" style="fill:blue;"/><circle cx="640" cy="0" r="2" style="fill:blue;"/><line x1="320" y1="600" x2="640" y2="0"/><circle cx="640" cy="0" r="2" style="fill:blue;"/><circle cx="960" cy="0" r="2" style="fill:blue;"/><line x1="640" y1="0" x2="960" y2="0"/><circle cx="960" cy="0" r="2" style="fill:blue;"/><circle cx="1280" cy="600" r="2" style="fill:blue;"/><line x1="960" y1="0" x2="1280" y2="600"/><circle cx="1280" cy="600" r="2" style="fill:blue;"/><circle cx="1600" cy="1200" r="2" style="fill:blue;"/><line x1="1280" y1="600" x2="1600" y2="1200"/></g></svg>