<?xml version="1.0" standalone="no"?>
<!DOCTYPE svg PUBLIC "-//W3C//DTD SVG 1.1//EN"
  "http://www.w3.org/Graphics/SVG/1.1/DTD/svg11.dtd">
<svg width="1600" height="1200" version="1.1"
  xmlns="http://www.w3.org/2000/svg">
<g style="stroke:#000000;stroke-width:1;"><line x1="0" y1="0" x2="0" y2="1200"/><line x1="290" y1="0" x2="290" y2="1200"/><line x1="581" y1="0" x2="581" y2="1200"/><line x1="872" y1="0" x2="872" y2="1200"/><line x1="1163" y1="0" x2="1163" y2="1200"/><line x1="1454" y1="0" x2="1454" y2="1200"/><line x1="0" y1="1200" x2="1600" y2="1200"/><line x1="0" y1="600" x2="1600" y2="600"/></g><g style="fill:#000000;"><text x="15" y="1185"><tspan x="15" dy="0em">0.00</tspan></text><text x="305" y="1185"><tspan x="305" dy="0em">1.00</tspan></text><text x="596" y="1185"><tspan x="596" dy="0em">2.00</tspan></text><text x="887" y="1185"><tspan x="887" dy="0em">3.00</tspan></text><text x="1178" y="1185"><tspan x="1178" dy="0em">4.00</tspan></text><text x="1469" y="1185"><tspan x="1469" dy="0em">5.00</tspan></text><text x="15" y="1215"><tspan x="15" dy="0em">0.00</tspan></text><text x="15" y="615"><tspan x="15" dy="0em">1.00</tspan></text></g><g style="stroke:#000000;stroke-width:2;"><line x1="0" y1="0" x2="0" y2="1200"/><line x1="0" y1="1200" x2="1600" y2="1200"/></g><g style="fill:#000000;"><text x="15" y="1185"><tspan x="15" dy="0em">0.00</tspan></text><text x="15" y="1215"><tspan x="15" dy="0em">0.00</tspan></text></g><g style="fill:#000000;"><text x="800" y="1160" font-size="10px"></text><text x="600" y="-40" font-size="10px" style="transform:rotate(90 0,0);"></text></g><g style="stroke:blue;stroke-width:1;"><circle cx="0" cy="1200" r="2" style="fill:blue;"/><circle cx="291" cy="600" r="2" style="fill:blue;"/><line x1="0" y1="1200" x2="291" y2="600"/><circle cx="291" cy="600" r="2" style="fill:blue;"/><circle cx="582" cy="0" r="2" style="fill:blue;"/><line x1="291" y1="600" x2="582" y2="0"/><circle cx="582" cy="0" r="2" style="fill:blue;"/><circle cx="873" cy="0" r="2" style="fill:blue;"/><line x1="582" y1="0" x2="873" y2="0"/><circle cx="873" cy="0" r="2" style="fill:blue;"/><circle cx="1164" cy="600" r="2" style="fill:blue;"/><line x1="873" y1="0" x2="1164" y2="600"/><circle cx="1164" cy="600" r="2" style="fill:blue;"/><circle cx="1455" cy="1200" r="2" style="fill:blue;"/><line x1="1164" y1="600" x2="1455" y2="1200"/></g><g style="stroke:red;stroke-width:1;"><circle cx="145" cy="900" r="2" style="fill:red;"/><circle cx="436" cy="900" r="2" style="fill:red;"/><line x1="145" y1="900" x2="436" y2="900"/><circle cx="436" cy="900" r="2" style="fill:red;"/><circle cx="727" cy="300" r="2" style="fill:red;"/><line x1="436" y1="900" x2="727" y2="300"/><circle cx="727" cy="300" r="2" style="fill:red;"/><circle cx="1018" cy="600" r="2" style="fill:red;"/><line x1="727" y1="300" x2="1018" y2="600"/><circle cx="1018" cy="600" r="2" style="fill:red;"/><circle cx="1309" cy="300" r="2" style="fill:red;"/><line x1="1018" y1="600" x2="1309" y2="300"/><circle cx="1309" cy="300" r="2" style="fill:red;"/><circle cx="1600" cy="300" r="2" style="fill:red;"/><line x1="1309" y1="300" x2="1600" y2="300"/></g></svg>