<?xml version="1.0" standalone="no"?>
<!DOCTYPE svg PUBLIC "-//W3C//DTD SVG 1.1//EN"
  "http://www.w3.org/Graphics/SVG/1.1/DTD/svg11.dtd">
<svg width="1600" height="1200" version="1.1"
  xmlns="http://www.w3.org/2000/svg">
<g style="stroke:#000000;stroke-width:1;"><line x1="133" y1="0" x2="133" y2="1200"/><line x1="266" y1="0" x2="266" y2="1200"/><line x1="400" y1="0" x2="400" y2="1200"/><line x1="533" y1="0" x2="533" y2="1200"/><line x1="666" y1="0" x2="666" y2="1200"/><line x1="800" y1="0" x2="800" y2="1200"/><line x1="933" y1="0" x2="933" y2="1200"/><line x1="1066" y1="0" x2="1066" y2="1200"/><line x1="1200" y1="0" x2="1200" y2="1200"/><line x1="1333" y1="0" x2="1333" y2="1200"/><line x1="1466" y1="0" x2="1466" y2="1200"/><line x1="1600" y1="0" x2="1600" y2="1200"/><line x1="0" y1="1090" x2="1600" y2="1090"/><line x1="0" y1="981" x2="1600" y2="981"/><line x1="0" y1="872" x2="1600" y2="872"/><line x1="0" y1="763" x2="1600" y2="763"/><line x1="0" y1="654" x2="1600" y2="654"/><line x1="0" y1="545" x2="1600" y2="545"/><line x1="0" y1="436" x2="1600" y2="436"/><line x1="0" y1="327" x2="1600" y2="327"/><line x1="0" y1="218" x2="1600" y2="218"/><line x1="0" y1="109" x2="1600" y2="109"/><line x1="0" y1="0" x2="1600" y2="0"/></g><g style="fill:#000000;"><text x="148" y="1185"><tspan x="148" dy="0em">-1.00</tspan></text><text x="281" y="1185"><tspan x="281" dy="0em">0.00</tspan></text><text x="415" y="1185"><tspan x="415" dy="0em">1.00</tspan></text><text x="548" y="1185"><tspan x="548" dy="0em">2.00</tspan></text><text x="681" y="1185"><tspan x="681" dy="0em">3.00</tspan></text><text x="815" y="1185"><tspan x="815" dy="0em">4.00</tspan></text><text x="948" y="1185"><tspan x="948" dy="0em">5.00</tspan></text><text x="1081" y="1185"><tspan x="1081" dy="0em">6.00</tspan></text><text x="1215" y="1185"><tspan x="1215" dy="0em">7.00</tspan></text><text x="1348" y="1185"><tspan x="1348" dy="0em">8.00</tspan></text><text x="1481" y="1185"><tspan x="1481" dy="0em">9.00</tspan></text><text x="1615" y="1185"><tspan x="1615" dy="0em">10.00</tspan></text><text x="15" y="1105"><tspan x="15" dy="0em">0.00</tspan></text><text x="15" y="996"><tspan x="15" dy="0em">1.00</tspan></text><text x="15" y="887"><tspan x="15" dy="0em">2.00</tspan></text><text x="15" y="778"><tspan x="15" dy="0em">3.00</tspan></text><text x="15" y="669"><tspan x="15" dy="0em">4.00</tspan></text><text x="15" y="560"><tspan x="15" dy="0em">5.00</tspan></text><text x="15" y="451"><tspan x="15" dy="0em">6.00</tspan></text><text x="15" y="342"><tspan x="15" dy="0em">7.00</tspan></text><text x="15" y="233"><tspan x="15" dy="0em">8.00</tspan></text><text x="15" y="124"><tspan x="15" dy="0em">9.00</tspan></text><text x="15" y="15"><tspan x="15" dy="0em">10.00</tspan></text></g><g style="stroke:#000000;stroke-width:2;"><line x1="266" y1="0" x2="266" y2="1200"/><line x1="0" y1="1090" x2="1600" y2="1090"/></g><g style="fill:#000000;"><text x="281" y="1185"><tspan x="281" dy="0em">0.00</tspan></text><text x="15" y="1105"><tspan x="15" dy="0em">0.00</tspan></text></g><g style="fill:#000000;"><text x="800" y="1160" font-size="10px"></text><text x="600" y="-40" font-size="10px" style="transform:rotate(90 0,0);"></text></g><g style="stroke:blue;stroke-width:1;"><circle cx="267" cy="1091" r="2" style="fill:blue;"/><circle cx="400" cy="982" r="2" style="fill:blue;"/><line x1="267" y1="1091" x2="400" y2="982"/><circle cx="400" cy="982" r="2" style="fill:blue;"/><circle cx="533" cy="873" r="2" style="fill:blue;"/><line x1="400" y1="982" x2="533" y2="873"/><circle cx="533" cy="873" r="2" style="fill:blue;"/><circle cx="667" cy="873" r="2" style="fill:blue;"/><line x1="533" y1="873" x2="667" y2="873"/><circle cx="667" cy="873" r="2" style="fill:blue;"/><circle cx="800" cy="982" r="2" style="fill:blue;"/><line x1="667" y1="873" x2="800" y2="982"/><circle cx="800" cy="982" r="2" style="fill:blue;"/><circle cx="933" cy="1091" r="2" style="fill:blue;"/><line x1="800" y1="982" x2="933" y2="1091"/></g></svg>