<?xml version="1.0" standalone="no"?>
<!DOCTYPE svg PUBLIC "-//W3C//DTD SVG 1.1//EN"
  "http://www.w3.org/Graphics/SVG/1.1/DTD/svg11.dtd">
<svg width="1600" height="1200" version="1.1"
  xmlns="http://www.w3.org/2000/svg">
<g style="stroke:#000000;stroke-width:1;"><line x1="0" y1="0" x2="0" y2="1200"/><line x1="0" y1="1200" x2="1600" y2="1200"/></g><g style="fill:#000000;"><text x="15" y="1185"><tspan x="15" dy="0em">1.00</tspan></text><text x="15" y="1215"><tspan x="15" dy="0em">1.00</tspan></text></g><g style="stroke:#000000;stroke-width:2;"><line x1="-1600" y1="0" x2="-1600" y2="1200"/><line x1="0" y1="2400" x2="1600" y2="2400"/></g><g style="fill:#000000;"><text x="-1585" y="1185"><tspan x="-1585" dy="0em">0.00</tspan></text><text x="15" y="2415"><tspan x="15" dy="0em">0.00</tspan></text></g><g style="fill:#000000;"><text x="800" y="1160" font-size="10px"></text><text x="600" y="-40" font-size="10px" style="transform:rotate(90 0,0);"></text></g><g style="stroke:red;stroke-width:1;"><circle cx="-1600" cy="2400" r="2" style="fill:red;"/><circle cx="0" cy="1200" r="2" style="fill:red;"/><line x1="-1600" y1="2400" x2="0" y2="1200"/><circle cx="0" cy="1200" r="2" style="fill:red;"/><circle cx="1600" cy="0" r="2" style="fill:red;"/><line x1="0" y1="1200" x2="1600" y2="0"/><circle cx="1600" cy="0" r="2" style="fill:red;"/><circle cx="3200" cy="0" r="2" style="fill:red;"/><line x1="1600" y1="0" x2="3200" y2="0"/><circle cx="3200" cy="0" r="2" style="fill:red;"/><circle cx="4800" cy="1200" r="2" style="fill:red;"/><line x1="3200" y1="0" x2="4800" y2="1200"/><circle cx="4800" cy="1200" r="2" style="fill:red;"/><circle cx="6400" cy="2400" r="2" style="fill:red;"/><line x1="4800" y1="1200" x2="6400" y2="2400"/></g></svg>