<?xml version="1.0" standalone="no"?>
<!DOCTYPE svg PUBLIC "-//W3C//DTD SVG 1.1//EN"
  "http://www.w3.org/Graphics/SVG/1.1/DTD/svg11.dtd">
<svg width="1600" height="1200" version="1.1"
  xmlns="http://www.w3.org/2000/svg">
<g style="stroke:#000000;stroke-width:1;"><line x1="0" y1="0" x2="0" y2="1200"/><line x1="80" y1="0" x2="80" y2="1200"/><line x1="160" y1="0" x2="160" y2="1200"/><line x1="240" y1="0" x2="240" y2="1200"/><line x1="320" y1="0" x2="320" y2="1200"/><line x1="400" y1="0" x2="400" y2="1200"/><line x1="480" y1="0" x2="480" y2="1200"/><line x1="560" y1="0" x2="560" y2="1200"/><line x1="640" y1="0" x2="640" y2="1200"/><line x1="720" y1="0" x2="720" y2="1200"/><line x1="800" y1="0" x2="800" y2="1200"/><line x1="880" y1="0" x2="880" y2="1200"/><line x1="960" y1="0" x2="960" y2="1200"/><line x1="1040" y1="0" x2="1040" y2="1200"/><line x1="1120" y1="0" x2="1120" y2="1200"/><line x1="1200" y1="0" x2="1200" y2="1200"/><line x1="1280" y1="0" x2="1280" y2="1200"/><line x1="1360" y1="0" x2="1360" y2="1200"/><line x1="1440" y1="0" x2="1440" y2="1200"/><line x1="1520" y1="0" x2="1520" y2="1200"/><line x1="0" y1="1200" x2="1600" y2="1200"/><line x1="0" y1="1140" x2="1600" y2="1140"/><line x1="0" y1="1080" x2="1600" y2="1080"/><line x1="0" y1="1020" x2="1600" y2="1020"/><line x1="0" y1="960" x2="1600" y2="960"/><line x1="0" y1="900" x2="1600" y2="900"/><line x1="0" y1="840" x2="1600" y2="840"/><line x1="0" y1="780" x2="1600" y2="780"/><line x1="0" y1="720" x2="1600" y2="720"/><line x1="0" y1="660" x2="1600" y2="660"/><line x1="0" y1="600" x2="1600" y2="600"/><line x1="0" y1="540" x2="1600" y2="540"/><line x1="0" y1="480" x2="1600" y2="480"/><line x1="0" y1="420" x2="1600" y2="420"/><line x1="0" y1="360" x2="1600" y2="360"/><line x1="0" y1="300" x2="1600" y2="300"/><line x1="0" y1="239" x2="1600" y2="239"/><line x1="0" y1="180" x2="1600" y2="180"/><line x1="0" y1="119" x2="1600" y2="119"/><line x1="0" y1="60" x2="1600" y2="60"/></g><g style="fill:#000000;"><text x="15" y="1185"><tspan x="15" dy="0em">0.00</tspan></text><text x="95" y="1185"><tspan x="95" dy="0em">0.25</tspan></text><text x="175" y="1185"><tspan x="175" dy="0em">0.50</tspan></text><text x="255" y="1185"><tspan x="255" dy="0em">0.75</tspan></text><text x="335" y="1185"><tspan x="335" dy="0em">1.00</tspan></text><text x="415" y="1185"><tspan x="415" dy="0em">1.25</tspan></text><text x="495" y="1185"><tspan x="495" dy="0em">1.50</tspan></text><text x="575" y="1185"><tspan x="575" dy="0em">1.75</tspan></text><text x="655" y="1185"><tspan x="655" dy="0em">2.00</tspan></text><text x="735" y="1185"><tspan x="735" dy="0em">2.25</tspan></text><text x="815" y="1185"><tspan x="815" dy="0em">2.50</tspan></text><text x="895" y="1185"><tspan x="895" dy="0em">2.75</tspan></text><text x="975" y="1185"><tspan x="975" dy="0em">3.00</tspan></text><text x="1055" y="1185"><tspan x="1055" dy="0em">3.25</tspan></text><text x="1135" y="1185"><tspan x="1135" dy="0em">3.50</tspan></text><text x="1215" y="1185"><tspan x="1215" dy="0em">3.75</tspan></text><text x="1295" y="1185"><tspan x="1295" dy="0em">4.00</tspan></text><text x="1375" y="1185"><tspan x="1375" dy="0em">4.25</tspan></text><text x="1455" y="1185"><tspan x="1455" dy="0em">4.50</tspan></text><text x="1535" y="1185"><tspan x="1535" dy="0em">4.75</tspan></text><text x="15" y="1215"><tspan x="15" dy="0em">0.00</tspan></text><text x="15" y="1155"><tspan x="15" dy="0em">0.10</tspan></text><text x="15" y="1095"><tspan x="15" dy="0em">0.20</tspan></text><text x="15" y="1035"><tspan x="15" dy="0em">0.30</tspan></text><text x="15" y="975"><tspan x="15" dy="0em">0.40</tspan></text><text x="15" y="915"><tspan x="15" dy="0em">0.50</tspan></text><text x="15" y="855"><tspan x="15" dy="0em">0.60</tspan></text><text x="15" y="795"><tspan x="15" dy="0em">0.70</tspan></text><text x="15" y="735"><tspan x="15" dy="0em">0.80</tspan></text><text x="15" y="675"><tspan x="15" dy="0em">0.90</tspan></text><text x="15" y="615"><tspan x="15" dy="0em">1.00</tspan></text><text x="15" y="555"><tspan x="15" dy="0em">1.10</tspan></text><text x="15" y="495"><tspan x="15" dy="0em">1.20</tspan></text><text x="15" y="435"><tspan x="15" dy="0em">1.30</tspan></text><text x="15" y="375"><tspan x="15" dy="0em">1.40</tspan></text><text x="15" y="315"><tspan x="15" dy="0em">1.50</tspan></text><text x="15" y="254"><tspan x="15" dy="0em">1.60</tspan></text><text x="15" y="195"><tspan x="15" dy="0em">1.70</tspan></text><text x="15" y="134"><tspan x="15" dy="0em">1.80</tspan></text><text x="15" y="75"><tspan x="15" dy="0em">1.90</tspan></text></g><g style="stroke:#000000;stroke-width:2;"><line x1="0" y1="0" x2="0" y2="1200"/><line x1="0" y1="1200" x2="1600" y2="1200"/></g><g style="fill:#000000;"><text x="15" y="1185"><tspan x="15" dy="0em">0.00</tspan></text><text x="15" y="1215"><tspan x="15" dy="0em">0.00</tspan></text></g><g style="fill:#000000;"><text x="800" y="1160" font-size="10px"></text><text x="600" y="-40" font-size="10px" style="transform:rotate(90 0,0);"></text></g><g style="stroke:blue;stroke-width:1;"><circle cx="0" cy="1200" r="2" style="fill:blue;"/><circle cx="320" cy="600" r="2" style="fill:blue;"/><line x1="0" y1="1200" x2="320" y2="600"/><circle cx="320" cy="600" r="2" style="fill:blue;"/><circle cx="640" cy="0" r="2" style="fill:blue;"/><line x1="320" y1="600" x2="640" y2="0"/><circle cx="640" cy="0" r="2" style="fill:blue;"/><circle cx="960" cy="0" r="2" style="fill:blue;"/><line x1="640" y1="0" x2="960" y2="0"/><circle cx="960" cy="0" r="2" style="fill:blue;"/><circle cx="1280" cy="600" r="2" style="fill:blue;"/><line x1="960" y1="0" x2="1280" y2="600"/><circle cx="1280" cy="600" r="2" style="fill:blue;"/><circle cx="1600" cy="1200" r="2" style="fill:blue;"/><line x1="1280" y1="600" x2="1600" y2="1200"/></g></svg>