<?xml version="1.0" standalone="no"?>
<!DOCTYPE svg PUBLIC "-//W3C//DTD SVG 1.1//EN"
  "http://www.w3.org/Graphics/SVG/1.1/DTD/svg11.dtd">
<svg width="1600" height="1200" version="1.1"
  xmlns="http://www.w3.org/2000/svg">
<g style="stroke:#000000;stroke-width:1;"><line x1="0" y1="0" x2="0" y2="1200"/><line x1="554" y1="0" x2="554" y2="1200"/><line x1="1108" y1="0" x2="1108" y2="1200"/><line x1="0" y1="1200" x2="1600" y2="1200"/><line x1="0" y1="782" x2="1600" y2="782"/><line x1="0" y1="365" x2="1600" y2="365"/></g><g style="fill:#000000;"><text x="15" y="1185"><tspan x="15" dy="0em">0.0</tspan></text><text x="569" y="1185"><tspan x="569" dy="0em">1.0</tspan></text><text x="1123" y="1185"><tspan x="1123" dy="0em">2.0</tspan></text><text x="15" y="1215"><tspan x="15" dy="0em">0.0</tspan></text><text x="15" y="797"><tspan x="15" dy="0em">1.0</tspan></text><text x="15" y="380"><tspan x="15" dy="0em">2.0</tspan></text></g><g style="stroke:#000000;stroke-width:2;"><line x1="0" y1="0" x2="0" y2="1200"/><line x1="0" y1="1200" x2="1600" y2="1200"/></g><g style="fill:#000000;"><text x="15" y="1185"><tspan x="15" dy="0em">0.0</tspan></text><text x="15" y="1215"><tspan x="15" dy="0em">0.0</tspan></text></g><g style="fill:#000000;"><text x="800" y="1160" font-size="10px"></text><text x="600" y="-40" font-size="10px" style="transform:rotate(90 0,0);"></text></g><g style="fill:#000000;"><text x="5" y="1200"><tspan x="5" dy="0em">0.0</tspan></text><text x="66" y="1149"><tspan x="66" dy="0em">0.1</tspan></text><text x="682" y="592"><tspan x="682" dy="0em">1.5</tspan></text><text x="744" y="0"><tspan x="744" dy="0em">2.9</tspan></text><text x="1421" y="765"><tspan x="1421" dy="0em">1.0</tspan></text></g><g style="stroke:blue;stroke-width:1;"><circle cx="0" cy="1200" r="2" style="fill:blue;"/><circle cx="61" cy="1149" r="2" style="fill:blue;"/><line x1="0" y1="1200" x2="61" y2="1149"/><circle cx="61" cy="1149" r="2" style="fill:blue;"/><circle cx="677" cy="592" r="2" style="fill:blue;"/><line x1="61" y1="1149" x2="677" y2="592"/><circle cx="677" cy="592" r="2" style="fill:blue;"/><circle cx="739" cy="0" r="2" style="fill:blue;"/><line x1="677" y1="592" x2="739" y2="0"/><circle cx="739" cy="0" r="2" style="fill:blue;"/><circle cx="1416" cy="765" r="2" style="fill:blue;"/><line x1="739" y1="0" x2="1416" y2="765"/><circle cx="1416" cy="765" r="2" style="fill:blue;"/><circle cx="1600" cy="788" r="2" style="fill:blue;"/><line x1="1416" y1="765" x2="1600" y2="788"/></g></svg>