<?xml version="1.0" standalone="no"?>
<!DOCTYPE svg PUBLIC "-//W3C//DTD SVG 1.1//EN"
  "http://www.w3.org/Graphics/SVG/1.1/DTD/svg11.dtd">
<svg width="600" height="300" version="1.1"
  xmlns="http://www.w3.org/2000/svg">
<g style="stroke:#000000;stroke-width:1;"><line x1="0" y1="0" x2="0" y2="300"/><line x1="120" y1="0" x2="120" y2="300"/><line x1="240" y1="0" x2="240" y2="300"/><line x1="360" y1="0" x2="360" y2="300"/><line x1="480" y1="0" x2="480" y2="300"/><line x1="0" y1="300" x2="600" y2="300"/><line x1="0" y1="150" x2="600" y2="150"/></g><g style="fill:#000000;"><text x="15" y="285"><tspan x="15" dy="0em">0.00</tspan></text><text x="135" y="285"><tspan x="135" dy="0em">1.00</tspan></text><text x="255" y="285"><tspan x="255" dy="0em">2.00</tspan></text><text x="375" y="285"><tspan x="375" dy="0em">3.00</tspan></text><text x="495" y="285"><tspan x="495" dy="0em">4.00</tspan></text><text x="15" y="315"><tspan x="15" dy="0em">0.00</tspan></text><text x="15" y="165"><tspan x="15" dy="0em">1.00</tspan></text></g><g style="stroke:#000000;stroke-width:2;"><line x1="0" y1="0" x2="0" y2="300"/><line x1="0" y1="300" x2="600" y2="300"/></g><g style="fill:#000000;"><text x="15" y="285"><tspan x="15" dy="0em">0.00</tspan></text><text x="15" y="315"><tspan x="15" dy="0em">0.00</tspan></text></g><g style="fill:#000000;"><text x="300" y="260" font-size="10px"></text><text x="150" y="-40" font-size="10px" style="transform:rotate(90 0,0);"></text></g><g style="stroke:blue;stroke-width:1;"><circle cx="0" cy="300" r="2" style="fill:blue;"/><circle cx="120" cy="150" r="2" style="fill:blue;"/><line x1="0" y1="300" x2="120" y2="150"/><circle cx="120" cy="150" r="2" style="fill:blue;"/><circle cx="240" cy="0" r="2" style="fill:blue;"/><line x1="120" y1="150" x2="240" y2="0"/><circle cx="240" cy="0" r="2" style="fill:blue;"/><circle cx="360" cy="0" r="2" style="fill:blue;"/><line x1="240" y1="0" x2="360" y2="0"/><circle cx="360" cy="0" r="2" style="fill:blue;"/><circle cx="480" cy="150" r="2" style="fill:blue;"/><line x1="360" y1="0" x2="480" y2="150"/><circle cx="480" cy="150" r="2" style="fill:blue;"/><circle cx="600" cy="300" r="2" style="fill:blue;"/><line x1="480" y1="150" x2="600" y2="300"/></g></svg>