<?xml version="1.0" standalone="no"?>
<!DOCTYPE svg PUBLIC "-//W3C//DTD SVG 1.1//EN"
  "http://www.w3.org/Graphics/SVG/1.1/DTD/svg11.dtd">
<svg width="1600" height="1200" version="1.1"
  xmlns="http://www.w3.org/2000/svg">
<g style="stroke:#000000;stroke-width:1;"><line x1="0" y1="0" x2="0" y2="1200"/><line x1="301" y1="0" x2="301" y2="1200"/><line x1="602" y1="0" x2="602" y2="1200"/><line x1="903" y1="0" x2="903" y2="1200"/><line x1="1205" y1="0" x2="1205" y2="1200"/><line x1="1506" y1="0" x2="1506" y2="1200"/><line x1="0" y1="1139" x2="1600" y2="1139"/><line x1="0" y1="639" x2="1600" y2="639"/><line x1="0" y1="139" x2="1600" y2="139"/></g><g style="fill:#000000;"><text x="15" y="1185"><tspan x="15" dy="0em">0.00</tspan></text><text x="316" y="1185"><tspan x="316" dy="0em">1.00</tspan></text><text x="617" y="1185"><tspan x="617" dy="0em">2.00</tspan></text><text x="918" y="1185"><tspan x="918" dy="0em">3.00</tspan></text><text x="1220" y="1185"><tspan x="1220" dy="0em">4.00</tspan></text><text x="1521" y="1185"><tspan x="1521" dy="0em">5.00</tspan></text><text x="15" y="1154"><tspan x="15" dy="0em">0.00</tspan></text><text x="15" y="654"><tspan x="15" dy="0em">1.00</tspan></text><text x="15" y="154"><tspan x="15" dy="0em">2.00</tspan></text></g><g style="stroke:#000000;stroke-width:2;"><line x1="0" y1="0" x2="0" y2="1200"/><line x1="0" y1="1139" x2="1600" y2="1139"/></g><g style="fill:#000000;"><text x="15" y="1185"><tspan x="15" dy="0em">0.00</tspan></text><text x="15" y="1154"><tspan x="15" dy="0em">0.00</tspan></text></g><g style="fill:#000000;"><text x="800" y="1160" font-size="10px"></text><text x="600" y="-40" font-size="10px" style="transform:rotate(90 0,0);"></text></g><g style="stroke:#FFFF00;stroke-width:1;"><circle cx="0" cy="1140" r="2" style="fill:#FFFF00;"/><circle cx="301" cy="640" r="2" style="fill:#FFFF00;"/><line x1="0" y1="1140" x2="301" y2="640"/><circle cx="301" cy="640" r="2" style="fill:#FFFF00;"/><circle cx="603" cy="140" r="2" style="fill:#FFFF00;"/><line x1="301" y1="640" x2="603" y2="140"/><circle cx="603" cy="140" r="2" style="fill:#FFFF00;"/><circle cx="904" cy="140" r="2" style="fill:#FFFF00;"/><line x1="603" y1="140" x2="904" y2="140"/><circle cx="904" cy="140" r="2" style="fill:#FFFF00;"/><circle cx="1205" cy="640" r="2" style="fill:#FFFF00;"/><line x1="904" y1="140" x2="1205" y2="640"/><circle cx="1205" cy="640" r="2" style="fill:#FFFF00;"/><circle cx="1507" cy="1140" r="2" style="fill:#FFFF00;"/><line x1="1205" y1="640" x2="1507" y2="1140"/></g><g style="stroke:#00FFFF;stroke-width:1;"><circle cx="93" cy="1035" r="2" style="fill:#00FFFF;"/><circle cx="395" cy="535" r="2" style="fill:#00FFFF;"/><line x1="93" y1="1035" x2="395" y2="535"/><circle cx="395" cy="535" r="2" style="fill:#00FFFF;"/><circle cx="696" cy="35" r="2" style="fill:#00FFFF;"/><line x1="395" y1="535" x2="696" y2="35"/><circle cx="696" cy="35" r="2" style="fill:#00FFFF;"/><circle cx="997" cy="35" r="2" style="fill:#00FFFF;"/><line x1="696" y1="35" x2="997" y2="35"/><circle cx="997" cy="35" r="2" style="fill:#00FFFF;"/><circle cx="1299" cy="535" r="2" style="fill:#00FFFF;"/><line x1="997" y1="35" x2="1299" y2="535"/><circle cx="1299" cy="535" r="2" style="fill:#00FFFF;"/><circle cx="1600" cy="1035" r="2" style="fill:#00FFFF;"/><line x1="1299" y1="535" x2="1600" y2="1035"/></g><g style="stroke:#FF00FF;stroke-width:1;"><circle cx="69" cy="1200" r="2" style="fill:#FF00FF;"/><circle cx="368" cy="600" r="2" style="fill:#FF00FF;"/><line x1="69" y1="1200" x2="368" y2="600"/><circle cx="368" cy="600" r="2" style="fill:#FF00FF;"/><circle cx="666" cy="0" r="2" style="fill:#FF00FF;"/><line x1="368" y1="600" x2="666" y2="0"/><circle cx="666" cy="0" r="2" style="fill:#FF00FF;"/><circle cx="964" cy="0" r="2" style="fill:#FF00FF;"/><line x1="666" y1="0" x2="964" y2="0"/><circle cx="964" cy="0" r="2" style="fill:#FF00FF;"/><circle cx="1263" cy="600" r="2" style="fill:#FF00FF;"/><line x1="964" y1="0" x2="1263" y2="600"/><circle cx="1263" cy="600" r="2" style="fill:#FF00FF;"/><circle cx="1561" cy="1200" r="2" style="fill:#FF00FF;"/><line x1="1263" y1="600" x2="1561" y2="1200"/></g><g><circle cx="800" cy="1075" r="2" style="stroke:#FFFF00;fill:#FFFF00;stroke-width:1;"/><text x="805" y="1081" font-size="20px" style="fill:#FFFF00;"><tspan x="805" dy="0em">simple</tspan></text><circle cx="800" cy="1100" r="2" style="stroke:#00FFFF;fill:#00FFFF;stroke-width:1;"/><text x="805" y="1106" font-size="20px" style="fill:#00FFFF;"><tspan x="805" dy="0em">offset</tspan></text><circle cx="800" cy="1125" r="2" style="stroke:#FF00FF;fill:#FF00FF;stroke-width:1;"/><text x="805" y="1131" font-size="20px" style="fill:#FF00FF;"><tspan x="805" dy="0em">scaled</tspan></text></g></svg>