<?xml version="1.0" standalone="no"?>
<!DOCTYPE svg PUBLIC "-//W3C//DTD SVG 1.1//EN"
  "http://www.w3.org/Graphics/SVG/1.1/DTD/svg11.dtd">
<svg width="3200" height="1200" version="1.1"
  xmlns="http://www.w3.org/2000/svg">
<g style="stroke:#000000;stroke-width:1;"><line x1="160" y1="0" x2="160" y2="1200"/><line x1="320" y1="0" x2="320" y2="1200"/><line x1="480" y1="0" x2="480" y2="1200"/><line x1="640" y1="0" x2="640" y2="1200"/><line x1="800" y1="0" x2="800" y2="1200"/><line x1="960" y1="0" x2="960" y2="1200"/><line x1="1120" y1="0" x2="1120" y2="1200"/><line x1="1280" y1="0" x2="1280" y2="1200"/><line x1="1440" y1="0" x2="1440" y2="1200"/><line x1="1600" y1="0" x2="1600" y2="1200"/><line x1="1760" y1="0" x2="1760" y2="1200"/><line x1="1920" y1="0" x2="1920" y2="1200"/><line x1="2080" y1="0" x2="2080" y2="1200"/><line x1="2240" y1="0" x2="2240" y2="1200"/><line x1="2400" y1="0" x2="2400" y2="1200"/><line x1="2560" y1="0" x2="2560" y2="1200"/><line x1="2720" y1="0" x2="2720" y2="1200"/><line x1="2880" y1="0" x2="2880" y2="1200"/><line x1="3040" y1="0" x2="3040" y2="1200"/><line x1="3200" y1="0" x2="3200" y2="1200"/><line x1="0" y1="1143" x2="3200" y2="1143"/><line x1="0" y1="1082" x2="3200" y2="1082"/><line x1="0" y1="1022" x2="3200" y2="1022"/><line x1="0" y1="962" x2="3200" y2="962"/><line x1="0" y1="901" x2="3200" y2="901"/><line x1="0" y1="841" x2="3200" y2="841"/><line x1="0" y1="781" x2="3200" y2="781"/><line x1="0" y1="720" x2="3200" y2="720"/><line x1="0" y1="660" x2="3200" y2="660"/><line x1="0" y1="600" x2="3200" y2="600"/><line x1="0" y1="539" x2="3200" y2="539"/><line x1="0" y1="479" x2="3200" y2="479"/><line x1="0" y1="419" x2="3200" y2="419"/><line x1="0" y1="358" x2="3200" y2="358"/><line x1="0" y1="298" x2="3200" y2="298"/><line x1="0" y1="238" x2="3200" y2="238"/><line x1="0" y1="177" x2="3200" y2="177"/><line x1="0" y1="117" x2="3200" y2="117"/><line x1="0" y1="57" x2="3200" y2="57"/><line x1="0" y1="-3" x2="3200" y2="-3"/></g><g style="fill:#000000;"><text x="175" y="1185"><tspan x="175" dy="0em">-9.00</tspan></text><text x="335" y="1185"><tspan x="335" dy="0em">-8.00</tspan></text><text x="495" y="1185"><tspan x="495" dy="0em">-7.00</tspan></text><text x="655" y="1185"><tspan x="655" dy="0em">-6.00</tspan></text><text x="815" y="1185"><tspan x="815" dy="0em">-5.00</tspan></text><text x="975" y="1185"><tspan x="975" dy="0em">-4.00</tspan></text><text x="1135" y="1185"><tspan x="1135" dy="0em">-3.00</tspan></text><text x="1295" y="1185"><tspan x="1295" dy="0em">-2.00</tspan></text><text x="1455" y="1185"><tspan x="1455" dy="0em">-1.00</tspan></text><text x="1615" y="1185"><tspan x="1615" dy="0em">0.00</tspan></text><text x="1775" y="1185"><tspan x="1775" dy="0em">1.00</tspan></text><text x="1935" y="1185"><tspan x="1935" dy="0em">2.00</tspan></text><text x="2095" y="1185"><tspan x="2095" dy="0em">3.00</tspan></text><text x="2255" y="1185"><tspan x="2255" dy="0em">4.00</tspan></text><text x="2415" y="1185"><tspan x="2415" dy="0em">5.00</tspan></text><text x="2575" y="1185"><tspan x="2575" dy="0em">6.00</tspan></text><text x="2735" y="1185"><tspan x="2735" dy="0em">7.00</tspan></text><text x="2895" y="1185"><tspan x="2895" dy="0em">8.00</tspan></text><text x="3055" y="1185"><tspan x="3055" dy="0em">9.00</tspan></text><text x="3215" y="1185"><tspan x="3215" dy="0em">10.00</tspan></text><text x="15" y="1158"><tspan x="15" dy="0em">-9.00</tspan></text><text x="15" y="1097"><tspan x="15" dy="0em">-8.00</tspan></text><text x="15" y="1037"><tspan x="15" dy="0em">-7.00</tspan></text><text x="15" y="977"><tspan x="15" dy="0em">-6.00</tspan></text><text x="15" y="916"><tspan x="15" dy="0em">-5.00</tspan></text><text x="15" y="856"><tspan x="15" dy="0em">-4.00</tspan></text><text x="15" y="796"><tspan x="15" dy="0em">-3.00</tspan></text><text x="15" y="735"><tspan x="15" dy="0em">-2.00</tspan></text><text x="15" y="675"><tspan x="15" dy="0em">-1.00</tspan></text><text x="15" y="615"><tspan x="15" dy="0em">0.00</tspan></text><text x="15" y="554"><tspan x="15" dy="0em">1.00</tspan></text><text x="15" y="494"><tspan x="15" dy="0em">2.00</tspan></text><text x="15" y="434"><tspan x="15" dy="0em">3.00</tspan></text><text x="15" y="373"><tspan x="15" dy="0em">4.00</tspan></text><text x="15" y="313"><tspan x="15" dy="0em">5.00</tspan></text><text x="15" y="253"><tspan x="15" dy="0em">6.00</tspan></text><text x="15" y="192"><tspan x="15" dy="0em">7.00</tspan></text><text x="15" y="132"><tspan x="15" dy="0em">8.00</tspan></text><text x="15" y="72"><tspan x="15" dy="0em">9.00</tspan></text><text x="15" y="12"><tspan x="15" dy="0em">10.00</tspan></text></g><g style="stroke:#000000;stroke-width:2;"><line x1="1600" y1="0" x2="1600" y2="1200"/><line x1="0" y1="600" x2="3200" y2="600"/></g><g style="fill:#000000;"><text x="1615" y="1185"><tspan x="1615" dy="0em">0.00</tspan></text><text x="15" y="615"><tspan x="15" dy="0em">0.00</tspan></text></g><g style="fill:#000000;"><text x="1600" y="1160" font-size="10px"></text><text x="600" y="-40" font-size="10px" style="transform:rotate(90 0,0);"></text></g><g style="stroke:blue;stroke-width:1;"><circle cx="0" cy="961" r="2" style="fill:blue;"/><circle cx="13" cy="1123" r="2" style="fill:blue;"/><line x1="0" y1="961" x2="13" y2="1123"/><circle cx="13" cy="1123" r="2" style="fill:blue;"/><circle cx="26" cy="1006" r="2" style="fill:blue;"/><line x1="13" y1="1123" x2="26" y2="1006"/><circle cx="26" cy="1006" r="2" style="fill:blue;"/><circle cx="38" cy="0" r="2" style="fill:blue;"/><line x1="26" y1="1006" x2="38" y2="0"/><circle cx="38" cy="0" r="2" style="fill:blue;"/><circle cx="51" cy="122" r="2" style="fill:blue;"/><line x1="38" y1="0" x2="51" y2="122"/><circle cx="51" cy="122" r="2" style="fill:blue;"/><circle cx="64" cy="115" r="2" style="fill:blue;"/><line x1="51" y1="122" x2="64" y2="115"/><circle cx="64" cy="115" r="2" style="fill:blue;"/><circle cx="77" cy="270" r="2" style="fill:blue;"/><line x1="64" y1="115" x2="77" y2="270"/><circle cx="77" cy="270" r="2" style="fill:blue;"/><circle cx="90" cy="830" r="2" style="fill:blue;"/><line x1="77" y1="270" x2="90" y2="830"/><circle cx="90" cy="830" r="2" style="fill:blue;"/><circle cx="102" cy="507" r="2" style="fill:blue;"/><line x1="90" y1="830" x2="102" y2="507"/><circle cx="102" cy="507" r="2" style="fill:blue;"/><circle cx="115" cy="734" r="2" style="fill:blue;"/><line x1="102" y1="507" x2="115" y2="734"/><circle cx="115" cy="734" r="2" style="fill:blue;"/><circle cx="128" cy="1032" r="2" style="fill:blue;"/><line x1="115" y1="734" x2="128" y2="1032"/><circle cx="128" cy="1032" r="2" style="fill:blue;"/><circle cx="141" cy="192" r="2" style="fill:blue;"/><line x1="128" y1="1032" x2="141" y2="192"/><circle cx="141" cy="192" r="2" style="fill:blue;"/><circle cx="154" cy="161" r="2" style="fill:blue;"/><line x1="141" y1="192" x2="154" y2="161"/><circle cx="154" cy="161" r="2" style="fill:blue;"/><circle cx="166" cy="665" r="2" style="fill:blue;"/><line x1="154" y1="161" x2="166" y2="665"/><circle cx="166" cy="665" r="2" style="fill:blue;"/><circle cx="179" cy="573" r="2" style="fill:blue;"/><line x1="166" y1="665" x2="179" y2="573"/><circle cx="179" cy="573" r="2" style="fill:blue;"/><circle cx="192" cy="218" r="2" style="fill:blue;"/><line x1="179" y1="573" x2="192" y2="218"/><circle cx="192" cy="218" r="2" style="fill:blue;"/><circle cx="205" cy="162" r="2" style="fill:blue;"/><line x1="192" y1="218" x2="205" y2="162"/><circle cx="205" cy="162" r="2" style="fill:blue;"/><circle cx="218" cy="892" r="2" style="fill:blue;"/><line x1="205" y1="162" x2="218" y2="892"/><circle cx="218" cy="892" r="2" style="fill:blue;"/><circle cx="230" cy="691" r="2" style="fill:blue;"/><line x1="218" y1="892" x2="230" y2="691"/><circle cx="230" cy="691" r="2" style="fill:blue;"/><circle cx="243" cy="769" r="2" style="fill:blue;"/><line x1="230" y1="691" x2="243" y2="769"/><circle cx="243" cy="769" r="2" style="fill:blue;"/><circle cx="256" cy="755" r="2" style="fill:blue;"/><line x1="243" y1="769" x2="256" y2="755"/><circle cx="256" cy="755" r="2" style="fill:blue;"/><circle cx="269" cy="29" r="2" style="fill:blue;"/><line x1="256" y1="755" x2="269" y2="29"/><circle cx="269" cy="29" r="2" style="fill:blue;"/><circle cx="282" cy="616" r="2" style="fill:blue;"/><line x1="269" y1="29" x2="282" y2="616"/><circle cx="282" cy="616" r="2" style="fill:blue;"/><circle cx="294" cy="451" r="2" style="fill:blue;"/><line x1="282" y1="616" x2="294" y2="451"/><circle cx="294" cy="451" r="2" style="fill:blue;"/><circle cx="307" cy="158" r="2" style="fill:blue;"/><line x1="294" y1="451" x2="307" y2="158"/><circle cx="307" cy="158" r="2" style="fill:blue;"/><circle cx="320" cy="370" r="2" style="fill:blue;"/><line x1="307" y1="158" x2="320" y2="370"/><circle cx="320" cy="370" r="2" style="fill:blue;"/><circle cx="333" cy="339" r="2" style="fill:blue;"/><line x1="320" y1="370" x2="333" y2="339"/><circle cx="333" cy="339" r="2" style="fill:blue;"/><circle cx="346" cy="998" r="2" style="fill:blue;"/><line x1="333" y1="339" x2="346" y2="998"/><circle cx="346" cy="998" r="2" style="fill:blue;"/><circle cx="358" cy="124" r="2" style="fill:blue;"/><line x1="346" y1="998" x2="358" y2="124"/><circle cx="358" cy="124" r="2" style="fill:blue;"/><circle cx="371" cy="183" r="2" style="fill:blue;"/><line x1="358" y1="124" x2="371" y2="183"/><circle cx="371" cy="183" r="2" style="fill:blue;"/><circle cx="384" cy="1121" r="2" style="fill:blue;"/><line x1="371" y1="183" x2="384" y2="1121"/><circle cx="384" cy="1121" r="2" style="fill:blue;"/><circle cx="397" cy="382" r="2" style="fill:blue;"/><line x1="384" y1="1121" x2="397" y2="382"/><circle cx="397" cy="382" r="2" style="fill:blue;"/><circle cx="410" cy="1128" r="2" style="fill:blue;"/><line x1="397" y1="382" x2="410" y2="1128"/><circle cx="410" cy="1128" r="2" style="fill:blue;"/><circle cx="422" cy="487" r="2" style="fill:blue;"/><line x1="410" y1="1128" x2="422" y2="487"/><circle cx="422" cy="487" r="2" style="fill:blue;"/><circle cx="435" cy="787" r="2" style="fill:blue;"/><line x1="422" y1="487" x2="435" y2="787"/><circle cx="435" cy="787" r="2" style="fill:blue;"/><circle cx="448" cy="847" r="2" style="fill:blue;"/><line x1="435" y1="787" x2="448" y2="847"/><circle cx="448" cy="847" r="2" style="fill:blue;"/><circle cx="461" cy="1040" r="2" style="fill:blue;"/><line x1="448" y1="847" x2="461" y2="1040"/><circle cx="461" cy="1040" r="2" style="fill:blue;"/><circle cx="474" cy="1075" r="2" style="fill:blue;"/><line x1="461" y1="1040" x2="474" y2="1075"/><circle cx="474" cy="1075" r="2" style="fill:blue;"/><circle cx="486" cy="595" r="2" style="fill:blue;"/><line x1="474" y1="1075" x2="486" y2="595"/><circle cx="486" cy="595" r="2" style="fill:blue;"/><circle cx="499" cy="269" r="2" style="fill:blue;"/><line x1="486" y1="595" x2="499" y2="269"/><circle cx="499" cy="269" r="2" style="fill:blue;"/><circle cx="512" cy="684" r="2" style="fill:blue;"/><line x1="499" y1="269" x2="512" y2="684"/><circle cx="512" cy="684" r="2" style="fill:blue;"/><circle cx="525" cy="889" r="2" style="fill:blue;"/><line x1="512" y1="684" x2="525" y2="889"/><circle cx="525" cy="889" r="2" style="fill:blue;"/><circle cx="538" cy="1189" r="2" style="fill:blue;"/><line x1="525" y1="889" x2="538" y2="1189"/><circle cx="538" cy="1189" r="2" style="fill:blue;"/><circle cx="550" cy="1130" r="2" style="fill:blue;"/><line x1="538" y1="1189" x2="550" y2="1130"/><circle cx="550" cy="1130" r="2" style="fill:blue;"/><circle cx="563" cy="431" r="2" style="fill:blue;"/><line x1="550" y1="1130" x2="563" y2="431"/><circle cx="563" cy="431" r="2" style="fill:blue;"/><circle cx="576" cy="1178" r="2" style="fill:blue;"/><line x1="563" y1="431" x2="576" y2="1178"/><circle cx="576" cy="1178" r="2" style="fill:blue;"/><circle cx="589" cy="436" r="2" style="fill:blue;"/><line x1="576" y1="1178" x2="589" y2="436"/><circle cx="589" cy="436" r="2" style="fill:blue;"/><circle cx="602" cy="1076" r="2" style="fill:blue;"/><line x1="589" y1="436" x2="602" y2="1076"/><circle cx="602" cy="1076" r="2" style="fill:blue;"/><circle cx="614" cy="773" r="2" style="fill:blue;"/><line x1="602" y1="1076" x2="614" y2="773"/><circle cx="614" cy="773" r="2" style="fill:blue;"/><circle cx="627" cy="722" r="2" style="fill:blue;"/><line x1="614" y1="773" x2="627" y2="722"/><circle cx="627" cy="722" r="2" style="fill:blue;"/><circle cx="640" cy="501" r="2" style="fill:blue;"/><line x1="627" y1="722" x2="640" y2="501"/><circle cx="640" cy="501" r="2" style="fill:blue;"/><circle cx="653" cy="396" r="2" style="fill:blue;"/><line x1="640" y1="501" x2="653" y2="396"/><circle cx="653" cy="396" r="2" style="fill:blue;"/><circle cx="666" cy="942" r="2" style="fill:blue;"/><line x1="653" y1="396" x2="666" y2="942"/><circle cx="666" cy="942" r="2" style="fill:blue;"/><circle cx="678" cy="878" r="2" style="fill:blue;"/><line x1="666" y1="942" x2="678" y2="878"/><circle cx="678" cy="878" r="2" style="fill:blue;"/><circle cx="691" cy="614" r="2" style="fill:blue;"/><line x1="678" y1="878" x2="691" y2="614"/><circle cx="691" cy="614" r="2" style="fill:blue;"/><circle cx="704" cy="271" r="2" style="fill:blue;"/><line x1="691" y1="614" x2="704" y2="271"/><circle cx="704" cy="271" r="2" style="fill:blue;"/><circle cx="717" cy="1181" r="2" style="fill:blue;"/><line x1="704" y1="271" x2="717" y2="1181"/><circle cx="717" cy="1181" r="2" style="fill:blue;"/><circle cx="730" cy="465" r="2" style="fill:blue;"/><line x1="717" y1="1181" x2="730" y2="465"/><circle cx="730" cy="465" r="2" style="fill:blue;"/><circle cx="742" cy="1193" r="2" style="fill:blue;"/><line x1="730" y1="465" x2="742" y2="1193"/><circle cx="742" cy="1193" r="2" style="fill:blue;"/><circle cx="755" cy="874" r="2" style="fill:blue;"/><line x1="742" y1="1193" x2="755" y2="874"/><circle cx="755" cy="874" r="2" style="fill:blue;"/><circle cx="768" cy="1126" r="2" style="fill:blue;"/><line x1="755" y1="874" x2="768" y2="1126"/><circle cx="768" cy="1126" r="2" style="fill:blue;"/><circle cx="781" cy="737" r="2" style="fill:blue;"/><line x1="768" y1="1126" x2="781" y2="737"/><circle cx="781" cy="737" r="2" style="fill:blue;"/><circle cx="794" cy="899" r="2" style="fill:blue;"/><line x1="781" y1="737" x2="794" y2="899"/><circle cx="794" cy="899" r="2" style="fill:blue;"/><circle cx="806" cy="334" r="2" style="fill:blue;"/><line x1="794" y1="899" x2="806" y2="334"/><circle cx="806" cy="334" r="2" style="fill:blue;"/><circle cx="819" cy="239" r="2" style="fill:blue;"/><line x1="806" y1="334" x2="819" y2="239"/><circle cx="819" cy="239" r="2" style="fill:blue;"/><circle cx="832" cy="1160" r="2" style="fill:blue;"/><line x1="819" y1="239" x2="832" y2="1160"/><circle cx="832" cy="1160" r="2" style="fill:blue;"/><circle cx="845" cy="744" r="2" style="fill:blue;"/><line x1="832" y1="1160" x2="845" y2="744"/><circle cx="845" cy="744" r="2" style="fill:blue;"/><circle cx="858" cy="500" r="2" style="fill:blue;"/><line x1="845" y1="744" x2="858" y2="500"/><circle cx="858" cy="500" r="2" style="fill:blue;"/><circle cx="870" cy="703" r="2" style="fill:blue;"/><line x1="858" y1="500" x2="870" y2="703"/><circle cx="870" cy="703" r="2" style="fill:blue;"/><circle cx="883" cy="289" r="2" style="fill:blue;"/><line x1="870" y1="703" x2="883" y2="289"/><circle cx="883" cy="289" r="2" style="fill:blue;"/><circle cx="896" cy="355" r="2" style="fill:blue;"/><line x1="883" y1="289" x2="896" y2="355"/><circle cx="896" cy="355" r="2" style="fill:blue;"/><circle cx="909" cy="213" r="2" style="fill:blue;"/><line x1="896" y1="355" x2="909" y2="213"/><circle cx="909" cy="213" r="2" style="fill:blue;"/><circle cx="922" cy="530" r="2" style="fill:blue;"/><line x1="909" y1="213" x2="922" y2="530"/><circle cx="922" cy="530" r="2" style="fill:blue;"/><circle cx="934" cy="743" r="2" style="fill:blue;"/><line x1="922" y1="530" x2="934" y2="743"/><circle cx="934" cy="743" r="2" style="fill:blue;"/><circle cx="947" cy="8" r="2" style="fill:blue;"/><line x1="934" y1="743" x2="947" y2="8"/><circle cx="947" cy="8" r="2" style="fill:blue;"/><circle cx="960" cy="145" r="2" style="fill:blue;"/><line x1="947" y1="8" x2="960" y2="145"/><circle cx="960" cy="145" r="2" style="fill:blue;"/><circle cx="973" cy="746" r="2" style="fill:blue;"/><line x1="960" y1="145" x2="973" y2="746"/><circle cx="973" cy="746" r="2" style="fill:blue;"/><circle cx="986" cy="1156" r="2" style="fill:blue;"/><line x1="973" y1="746" x2="986" y2="1156"/><circle cx="986" cy="1156" r="2" style="fill:blue;"/><circle cx="998" cy="512" r="2" style="fill:blue;"/><line x1="986" y1="1156" x2="998" y2="512"/><circle cx="998" cy="512" r="2" style="fill:blue;"/><circle cx="1011" cy="1015" r="2" style="fill:blue;"/><line x1="998" y1="512" x2="1011" y2="1015"/><circle cx="1011" cy="1015" r="2" style="fill:blue;"/><circle cx="1024" cy="167" r="2" style="fill:blue;"/><line x1="1011" y1="1015" x2="1024" y2="167"/><circle cx="1024" cy="167" r="2" style="fill:blue;"/><circle cx="1037" cy="65" r="2" style="fill:blue;"/><line x1="1024" y1="167" x2="1037" y2="65"/><circle cx="1037" cy="65" r="2" style="fill:blue;"/><circle cx="1050" cy="177" r="2" style="fill:blue;"/><line x1="1037" y1="65" x2="1050" y2="177"/><circle cx="1050" cy="177" r="2" style="fill:blue;"/><circle cx="1062" cy="1094" r="2" style="fill:blue;"/><line x1="1050" y1="177" x2="1062" y2="1094"/><circle cx="1062" cy="1094" r="2" style="fill:blue;"/><circle cx="1075" cy="64" r="2" style="fill:blue;"/><line x1="1062" y1="1094" x2="1075" y2="64"/><circle cx="1075" cy="64" r="2" style="fill:blue;"/><circle cx="1088" cy="284" r="2" style="fill:blue;"/><line x1="1075" y1="64" x2="1088" y2="284"/><circle cx="1088" cy="284" r="2" style="fill:blue;"/><circle cx="1101" cy="518" r="2" style="fill:blue;"/><line x1="1088" y1="284" x2="1101" y2="518"/><circle cx="1101" cy="518" r="2" style="fill:blue;"/><circle cx="1114" cy="1014" r="2" style="fill:blue;"/><line x1="1101" y1="518" x2="1114" y2="1014"/><circle cx="1114" cy="1014" r="2" style="fill:blue;"/><circle cx="1126" cy="852" r="2" style="fill:blue;"/><line x1="1114" y1="1014" x2="1126" y2="852"/><circle cx="1126" cy="852" r="2" style="fill:blue;"/><circle cx="1139" cy="682" r="2" style="fill:blue;"/><line x1="1126" y1="852" x2="1139" y2="682"/><circle cx="1139" cy="682" r="2" style="fill:blue;"/><circle cx="1152" cy="588" r="2" style="fill:blue;"/><line x1="1139" y1="682" x2="1152" y2="588"/><circle cx="1152" cy="588" r="2" style="fill:blue;"/><circle cx="1165" cy="819" r="2" style="fill:blue;"/><line x1="1152" y1="588" x2="1165" y2="819"/><circle cx="1165" cy="819" r="2" style="fill:blue;"/><circle cx="1178" cy="950" r="2" style="fill:blue;"/><line x1="1165" y1="819" x2="1178" y2="950"/><circle cx="1178" cy="950" r="2" style="fill:blue;"/><circle cx="1190" cy="1032" r="2" style="fill:blue;"/><line x1="1178" y1="950" x2="1190" y2="1032"/><circle cx="1190" cy="1032" r="2" style="fill:blue;"/><circle cx="1203" cy="725" r="2" style="fill:blue;"/><line x1="1190" y1="1032" x2="1203" y2="725"/><circle cx="1203" cy="725" r="2" style="fill:blue;"/><circle cx="1216" cy="966" r="2" style="fill:blue;"/><line x1="1203" y1="725" x2="1216" y2="966"/><circle cx="1216" cy="966" r="2" style="fill:blue;"/><circle cx="1229" cy="265" r="2" style="fill:blue;"/><line x1="1216" y1="966" x2="1229" y2="265"/><circle cx="1229" cy="265" r="2" style="fill:blue;"/><circle cx="1242" cy="584" r="2" style="fill:blue;"/><line x1="1229" y1="265" x2="1242" y2="584"/><circle cx="1242" cy="584" r="2" style="fill:blue;"/><circle cx="1254" cy="116" r="2" style="fill:blue;"/><line x1="1242" y1="584" x2="1254" y2="116"/><circle cx="1254" cy="116" r="2" style="fill:blue;"/><circle cx="1267" cy="1164" r="2" style="fill:blue;"/><line x1="1254" y1="116" x2="1267" y2="1164"/><circle cx="1267" cy="1164" r="2" style="fill:blue;"/><circle cx="1280" cy="968" r="2" style="fill:blue;"/><line x1="1267" y1="1164" x2="1280" y2="968"/><circle cx="1280" cy="968" r="2" style="fill:blue;"/><circle cx="1293" cy="516" r="2" style="fill:blue;"/><line x1="1280" y1="968" x2="1293" y2="516"/><circle cx="1293" cy="516" r="2" style="fill:blue;"/><circle cx="1306" cy="401" r="2" style="fill:blue;"/><line x1="1293" y1="516" x2="1306" y2="401"/><circle cx="1306" cy="401" r="2" style="fill:blue;"/><circle cx="1318" cy="597" r="2" style="fill:blue;"/><line x1="1306" y1="401" x2="1318" y2="597"/><circle cx="1318" cy="597" r="2" style="fill:blue;"/><circle cx="1331" cy="684" r="2" style="fill:blue;"/><line x1="1318" y1="597" x2="1331" y2="684"/><circle cx="1331" cy="684" r="2" style="fill:blue;"/><circle cx="1344" cy="605" r="2" style="fill:blue;"/><line x1="1331" y1="684" x2="1344" y2="605"/><circle cx="1344" cy="605" r="2" style="fill:blue;"/><circle cx="1357" cy="1100" r="2" style="fill:blue;"/><line x1="1344" y1="605" x2="1357" y2="1100"/><circle cx="1357" cy="1100" r="2" style="fill:blue;"/><circle cx="1370" cy="159" r="2" style="fill:blue;"/><line x1="1357" y1="1100" x2="1370" y2="159"/><circle cx="1370" cy="159" r="2" style="fill:blue;"/><circle cx="1382" cy="952" r="2" style="fill:blue;"/><line x1="1370" y1="159" x2="1382" y2="952"/><circle cx="1382" cy="952" r="2" style="fill:blue;"/><circle cx="1395" cy="1088" r="2" style="fill:blue;"/><line x1="1382" y1="952" x2="1395" y2="1088"/><circle cx="1395" cy="1088" r="2" style="fill:blue;"/><circle cx="1408" cy="1055" r="2" style="fill:blue;"/><line x1="1395" y1="1088" x2="1408" y2="1055"/><circle cx="1408" cy="1055" r="2" style="fill:blue;"/><circle cx="1421" cy="1200" r="2" style="fill:blue;"/><line x1="1408" y1="1055" x2="1421" y2="1200"/><circle cx="1421" cy="1200" r="2" style="fill:blue;"/><circle cx="1434" cy="842" r="2" style="fill:blue;"/><line x1="1421" y1="1200" x2="1434" y2="842"/><circle cx="1434" cy="842" r="2" style="fill:blue;"/><circle cx="1446" cy="430" r="2" style="fill:blue;"/><line x1="1434" y1="842" x2="1446" y2="430"/><circle cx="1446" cy="430" r="2" style="fill:blue;"/><circle cx="1459" cy="770" r="2" style="fill:blue;"/><line x1="1446" y1="430" x2="1459" y2="770"/><circle cx="1459" cy="770" r="2" style="fill:blue;"/><circle cx="1472" cy="255" r="2" style="fill:blue;"/><line x1="1459" y1="770" x2="1472" y2="255"/><circle cx="1472" cy="255" r="2" style="fill:blue;"/><circle cx="1485" cy="941" r="2" style="fill:blue;"/><line x1="1472" y1="255" x2="1485" y2="941"/><circle cx="1485" cy="941" r="2" style="fill:blue;"/><circle cx="1498" cy="527" r="2" style="fill:blue;"/><line x1="1485" y1="941" x2="1498" y2="527"/><circle cx="1498" cy="527" r="2" style="fill:blue;"/><circle cx="1510" cy="568" r="2" style="fill:blue;"/><line x1="1498" y1="527" x2="1510" y2="568"/><circle cx="1510" cy="568" r="2" style="fill:blue;"/><circle cx="1523" cy="570" r="2" style="fill:blue;"/><line x1="1510" y1="568" x2="1523" y2="570"/><circle cx="1523" cy="570" r="2" style="fill:blue;"/><circle cx="1536" cy="1107" r="2" style="fill:blue;"/><line x1="1523" y1="570" x2="1536" y2="1107"/><circle cx="1536" cy="1107" r="2" style="fill:blue;"/><circle cx="1549" cy="576" r="2" style="fill:blue;"/><line x1="1536" y1="1107" x2="1549" y2="576"/><circle cx="1549" cy="576" r="2" style="fill:blue;"/><circle cx="1562" cy="929" r="2" style="fill:blue;"/><line x1="1549" y1="576" x2="1562" y2="929"/><circle cx="1562" cy="929" r="2" style="fill:blue;"/><circle cx="1574" cy="167" r="2" style="fill:blue;"/><line x1="1562" y1="929" x2="1574" y2="167"/><circle cx="1574" cy="167" r="2" style="fill:blue;"/><circle cx="1587" cy="122" r="2" style="fill:blue;"/><line x1="1574" y1="167" x2="1587" y2="122"/><circle cx="1587" cy="122" r="2" style="fill:blue;"/><circle cx="1600" cy="687" r="2" style="fill:blue;"/><line x1="1587" y1="122" x2="1600" y2="687"/><circle cx="1600" cy="687" r="2" style="fill:blue;"/><circle cx="1613" cy="265" r="2" style="fill:blue;"/><line x1="1600" y1="687" x2="1613" y2="265"/><circle cx="1613" cy="265" r="2" style="fill:blue;"/><circle cx="1626" cy="481" r="2" style="fill:blue;"/><line x1="1613" y1="265" x2="1626" y2="481"/><circle cx="1626" cy="481" r="2" style="fill:blue;"/><circle cx="1638" cy="725" r="2" style="fill:blue;"/><line x1="1626" y1="481" x2="1638" y2="725"/><circle cx="1638" cy="725" r="2" style="fill:blue;"/><circle cx="1651" cy="803" r="2" style="fill:blue;"/><line x1="1638" y1="725" x2="1651" y2="803"/><circle cx="1651" cy="803" r="2" style="fill:blue;"/><circle cx="1664" cy="928" r="2" style="fill:blue;"/><line x1="1651" y1="803" x2="1664" y2="928"/><circle cx="1664" cy="928" r="2" style="fill:blue;"/><circle cx="1677" cy="906" r="2" style="fill:blue;"/><line x1="1664" y1="928" x2="1677" y2="906"/><circle cx="1677" cy="906" r="2" style="fill:blue;"/><circle cx="1690" cy="687" r="2" style="fill:blue;"/><line x1="1677" y1="906" x2="1690" y2="687"/><circle cx="1690" cy="687" r="2" style="fill:blue;"/><circle cx="1702" cy="957" r="2" style="fill:blue;"/><line x1="1690" y1="687" x2="1702" y2="957"/><circle cx="1702" cy="957" r="2" style="fill:blue;"/><circle cx="1715" cy="91" r="2" style="fill:blue;"/><line x1="1702" y1="957" x2="1715" y2="91"/><circle cx="1715" cy="91" r="2" style="fill:blue;"/><circle cx="1728" cy="1159" r="2" style="fill:blue;"/><line x1="1715" y1="91" x2="1728" y2="1159"/><circle cx="1728" cy="1159" r="2" style="fill:blue;"/><circle cx="1741" cy="755" r="2" style="fill:blue;"/><line x1="1728" y1="1159" x2="1741" y2="755"/><circle cx="1741" cy="755" r="2" style="fill:blue;"/><circle cx="1754" cy="1102" r="2" style="fill:blue;"/><line x1="1741" y1="755" x2="1754" y2="1102"/><circle cx="1754" cy="1102" r="2" style="fill:blue;"/><circle cx="1766" cy="916" r="2" style="fill:blue;"/><line x1="1754" y1="1102" x2="1766" y2="916"/><circle cx="1766" cy="916" r="2" style="fill:blue;"/><circle cx="1779" cy="644" r="2" style="fill:blue;"/><line x1="1766" y1="916" x2="1779" y2="644"/><circle cx="1779" cy="644" r="2" style="fill:blue;"/><circle cx="1792" cy="611" r="2" style="fill:blue;"/><line x1="1779" y1="644" x2="1792" y2="611"/><circle cx="1792" cy="611" r="2" style="fill:blue;"/><circle cx="1805" cy="84" r="2" style="fill:blue;"/><line x1="1792" y1="611" x2="1805" y2="84"/><circle cx="1805" cy="84" r="2" style="fill:blue;"/><circle cx="1818" cy="755" r="2" style="fill:blue;"/><line x1="1805" y1="84" x2="1818" y2="755"/><circle cx="1818" cy="755" r="2" style="fill:blue;"/><circle cx="1830" cy="65" r="2" style="fill:blue;"/><line x1="1818" y1="755" x2="1830" y2="65"/><circle cx="1830" cy="65" r="2" style="fill:blue;"/><circle cx="1843" cy="138" r="2" style="fill:blue;"/><line x1="1830" y1="65" x2="1843" y2="138"/><circle cx="1843" cy="138" r="2" style="fill:blue;"/><circle cx="1856" cy="5" r="2" style="fill:blue;"/><line x1="1843" y1="138" x2="1856" y2="5"/><circle cx="1856" cy="5" r="2" style="fill:blue;"/><circle cx="1869" cy="536" r="2" style="fill:blue;"/><line x1="1856" y1="5" x2="1869" y2="536"/><circle cx="1869" cy="536" r="2" style="fill:blue;"/><circle cx="1882" cy="758" r="2" style="fill:blue;"/><line x1="1869" y1="536" x2="1882" y2="758"/><circle cx="1882" cy="758" r="2" style="fill:blue;"/><circle cx="1894" cy="73" r="2" style="fill:blue;"/><line x1="1882" y1="758" x2="1894" y2="73"/><circle cx="1894" cy="73" r="2" style="fill:blue;"/><circle cx="1907" cy="284" r="2" style="fill:blue;"/><line x1="1894" y1="73" x2="1907" y2="284"/><circle cx="1907" cy="284" r="2" style="fill:blue;"/><circle cx="1920" cy="77" r="2" style="fill:blue;"/><line x1="1907" y1="284" x2="1920" y2="77"/><circle cx="1920" cy="77" r="2" style="fill:blue;"/><circle cx="1933" cy="263" r="2" style="fill:blue;"/><line x1="1920" y1="77" x2="1933" y2="263"/><circle cx="1933" cy="263" r="2" style="fill:blue;"/><circle cx="1946" cy="1107" r="2" style="fill:blue;"/><line x1="1933" y1="263" x2="1946" y2="1107"/><circle cx="1946" cy="1107" r="2" style="fill:blue;"/><circle cx="1958" cy="98" r="2" style="fill:blue;"/><line x1="1946" y1="1107" x2="1958" y2="98"/><circle cx="1958" cy="98" r="2" style="fill:blue;"/><circle cx="1971" cy="482" r="2" style="fill:blue;"/><line x1="1958" y1="98" x2="1971" y2="482"/><circle cx="1971" cy="482" r="2" style="fill:blue;"/><circle cx="1984" cy="1196" r="2" style="fill:blue;"/><line x1="1971" y1="482" x2="1984" y2="1196"/><circle cx="1984" cy="1196" r="2" style="fill:blue;"/><circle cx="1997" cy="337" r="2" style="fill:blue;"/><line x1="1984" y1="1196" x2="1997" y2="337"/><circle cx="1997" cy="337" r="2" style="fill:blue;"/><circle cx="2010" cy="564" r="2" style="fill:blue;"/><line x1="1997" y1="337" x2="2010" y2="564"/><circle cx="2010" cy="564" r="2" style="fill:blue;"/><circle cx="2022" cy="790" r="2" style="fill:blue;"/><line x1="2010" y1="564" x2="2022" y2="790"/><circle cx="2022" cy="790" r="2" style="fill:blue;"/><circle cx="2035" cy="430" r="2" style="fill:blue;"/><line x1="2022" y1="790" x2="2035" y2="430"/><circle cx="2035" cy="430" r="2" style="fill:blue;"/><circle cx="2048" cy="7" r="2" style="fill:blue;"/><line x1="2035" y1="430" x2="2048" y2="7"/><circle cx="2048" cy="7" r="2" style="fill:blue;"/><circle cx="2061" cy="345" r="2" style="fill:blue;"/><line x1="2048" y1="7" x2="2061" y2="345"/><circle cx="2061" cy="345" r="2" style="fill:blue;"/><circle cx="2074" cy="519" r="2" style="fill:blue;"/><line x1="2061" y1="345" x2="2074" y2="519"/><circle cx="2074" cy="519" r="2" style="fill:blue;"/><circle cx="2086" cy="242" r="2" style="fill:blue;"/><line x1="2074" y1="519" x2="2086" y2="242"/><circle cx="2086" cy="242" r="2" style="fill:blue;"/><circle cx="2099" cy="646" r="2" style="fill:blue;"/><line x1="2086" y1="242" x2="2099" y2="646"/><circle cx="2099" cy="646" r="2" style="fill:blue;"/><circle cx="2112" cy="900" r="2" style="fill:blue;"/><line x1="2099" y1="646" x2="2112" y2="900"/><circle cx="2112" cy="900" r="2" style="fill:blue;"/><circle cx="2125" cy="1146" r="2" style="fill:blue;"/><line x1="2112" y1="900" x2="2125" y2="1146"/><circle cx="2125" cy="1146" r="2" style="fill:blue;"/><circle cx="2138" cy="1067" r="2" style="fill:blue;"/><line x1="2125" y1="1146" x2="2138" y2="1067"/><circle cx="2138" cy="1067" r="2" style="fill:blue;"/><circle cx="2150" cy="208" r="2" style="fill:blue;"/><line x1="2138" y1="1067" x2="2150" y2="208"/><circle cx="2150" cy="208" r="2" style="fill:blue;"/><circle cx="2163" cy="620" r="2" style="fill:blue;"/><line x1="2150" y1="208" x2="2163" y2="620"/><circle cx="2163" cy="620" r="2" style="fill:blue;"/><circle cx="2176" cy="1078" r="2" style="fill:blue;"/><line x1="2163" y1="620" x2="2176" y2="1078"/><circle cx="2176" cy="1078" r="2" style="fill:blue;"/><circle cx="2189" cy="757" r="2" style="fill:blue;"/><line x1="2176" y1="1078" x2="2189" y2="757"/><circle cx="2189" cy="757" r="2" style="fill:blue;"/><circle cx="2202" cy="440" r="2" style="fill:blue;"/><line x1="2189" y1="757" x2="2202" y2="440"/><circle cx="2202" cy="440" r="2" style="fill:blue;"/><circle cx="2214" cy="541" r="2" style="fill:blue;"/><line x1="2202" y1="440" x2="2214" y2="541"/><circle cx="2214" cy="541" r="2" style="fill:blue;"/><circle cx="2227" cy="886" r="2" style="fill:blue;"/><line x1="2214" y1="541" x2="2227" y2="886"/><circle cx="2227" cy="886" r="2" style="fill:blue;"/><circle cx="2240" cy="736" r="2" style="fill:blue;"/><line x1="2227" y1="886" x2="2240" y2="736"/><circle cx="2240" cy="736" r="2" style="fill:blue;"/><circle cx="2253" cy="877" r="2" style="fill:blue;"/><line x1="2240" y1="736" x2="2253" y2="877"/><circle cx="2253" cy="877" r="2" style="fill:blue;"/><circle cx="2266" cy="728" r="2" style="fill:blue;"/><line x1="2253" y1="877" x2="2266" y2="728"/><circle cx="2266" cy="728" r="2" style="fill:blue;"/><circle cx="2278" cy="1076" r="2" style="fill:blue;"/><line x1="2266" y1="728" x2="2278" y2="1076"/><circle cx="2278" cy="1076" r="2" style="fill:blue;"/><circle cx="2291" cy="41" r="2" style="fill:blue;"/><line x1="2278" y1="1076" x2="2291" y2="41"/><circle cx="2291" cy="41" r="2" style="fill:blue;"/><circle cx="2304" cy="397" r="2" style="fill:blue;"/><line x1="2291" y1="41" x2="2304" y2="397"/><circle cx="2304" cy="397" r="2" style="fill:blue;"/><circle cx="2317" cy="477" r="2" style="fill:blue;"/><line x1="2304" y1="397" x2="2317" y2="477"/><circle cx="2317" cy="477" r="2" style="fill:blue;"/><circle cx="2330" cy="704" r="2" style="fill:blue;"/><line x1="2317" y1="477" x2="2330" y2="704"/><circle cx="2330" cy="704" r="2" style="fill:blue;"/><circle cx="2342" cy="527" r="2" style="fill:blue;"/><line x1="2330" y1="704" x2="2342" y2="527"/><circle cx="2342" cy="527" r="2" style="fill:blue;"/><circle cx="2355" cy="261" r="2" style="fill:blue;"/><line x1="2342" y1="527" x2="2355" y2="261"/><circle cx="2355" cy="261" r="2" style="fill:blue;"/><circle cx="2368" cy="532" r="2" style="fill:blue;"/><line x1="2355" y1="261" x2="2368" y2="532"/><circle cx="2368" cy="532" r="2" style="fill:blue;"/><circle cx="2381" cy="761" r="2" style="fill:blue;"/><line x1="2368" y1="532" x2="2381" y2="761"/><circle cx="2381" cy="761" r="2" style="fill:blue;"/><circle cx="2394" cy="1011" r="2" style="fill:blue;"/><line x1="2381" y1="761" x2="2394" y2="1011"/><circle cx="2394" cy="1011" r="2" style="fill:blue;"/><circle cx="2406" cy="139" r="2" style="fill:blue;"/><line x1="2394" y1="1011" x2="2406" y2="139"/><circle cx="2406" cy="139" r="2" style="fill:blue;"/><circle cx="2419" cy="276" r="2" style="fill:blue;"/><line x1="2406" y1="139" x2="2419" y2="276"/><circle cx="2419" cy="276" r="2" style="fill:blue;"/><circle cx="2432" cy="646" r="2" style="fill:blue;"/><line x1="2419" y1="276" x2="2432" y2="646"/><circle cx="2432" cy="646" r="2" style="fill:blue;"/><circle cx="2445" cy="548" r="2" style="fill:blue;"/><line x1="2432" y1="646" x2="2445" y2="548"/><circle cx="2445" cy="548" r="2" style="fill:blue;"/><circle cx="2458" cy="650" r="2" style="fill:blue;"/><line x1="2445" y1="548" x2="2458" y2="650"/><circle cx="2458" cy="650" r="2" style="fill:blue;"/><circle cx="2470" cy="610" r="2" style="fill:blue;"/><line x1="2458" y1="650" x2="2470" y2="610"/><circle cx="2470" cy="610" r="2" style="fill:blue;"/><circle cx="2483" cy="628" r="2" style="fill:blue;"/><line x1="2470" y1="610" x2="2483" y2="628"/><circle cx="2483" cy="628" r="2" style="fill:blue;"/><circle cx="2496" cy="954" r="2" style="fill:blue;"/><line x1="2483" y1="628" x2="2496" y2="954"/><circle cx="2496" cy="954" r="2" style="fill:blue;"/><circle cx="2509" cy="107" r="2" style="fill:blue;"/><line x1="2496" y1="954" x2="2509" y2="107"/><circle cx="2509" cy="107" r="2" style="fill:blue;"/><circle cx="2522" cy="847" r="2" style="fill:blue;"/><line x1="2509" y1="107" x2="2522" y2="847"/><circle cx="2522" cy="847" r="2" style="fill:blue;"/><circle cx="2534" cy="357" r="2" style="fill:blue;"/><line x1="2522" y1="847" x2="2534" y2="357"/><circle cx="2534" cy="357" r="2" style="fill:blue;"/><circle cx="2547" cy="282" r="2" style="fill:blue;"/><line x1="2534" y1="357" x2="2547" y2="282"/><circle cx="2547" cy="282" r="2" style="fill:blue;"/><circle cx="2560" cy="690" r="2" style="fill:blue;"/><line x1="2547" y1="282" x2="2560" y2="690"/><circle cx="2560" cy="690" r="2" style="fill:blue;"/><circle cx="2573" cy="784" r="2" style="fill:blue;"/><line x1="2560" y1="690" x2="2573" y2="784"/><circle cx="2573" cy="784" r="2" style="fill:blue;"/><circle cx="2586" cy="728" r="2" style="fill:blue;"/><line x1="2573" y1="784" x2="2586" y2="728"/><circle cx="2586" cy="728" r="2" style="fill:blue;"/><circle cx="2598" cy="875" r="2" style="fill:blue;"/><line x1="2586" y1="728" x2="2598" y2="875"/><circle cx="2598" cy="875" r="2" style="fill:blue;"/><circle cx="2611" cy="1027" r="2" style="fill:blue;"/><line x1="2598" y1="875" x2="2611" y2="1027"/><circle cx="2611" cy="1027" r="2" style="fill:blue;"/><circle cx="2624" cy="440" r="2" style="fill:blue;"/><line x1="2611" y1="1027" x2="2624" y2="440"/><circle cx="2624" cy="440" r="2" style="fill:blue;"/><circle cx="2637" cy="981" r="2" style="fill:blue;"/><line x1="2624" y1="440" x2="2637" y2="981"/><circle cx="2637" cy="981" r="2" style="fill:blue;"/><circle cx="2650" cy="248" r="2" style="fill:blue;"/><line x1="2637" y1="981" x2="2650" y2="248"/><circle cx="2650" cy="248" r="2" style="fill:blue;"/><circle cx="2662" cy="837" r="2" style="fill:blue;"/><line x1="2650" y1="248" x2="2662" y2="837"/><circle cx="2662" cy="837" r="2" style="fill:blue;"/><circle cx="2675" cy="1008" r="2" style="fill:blue;"/><line x1="2662" y1="837" x2="2675" y2="1008"/><circle cx="2675" cy="1008" r="2" style="fill:blue;"/><circle cx="2688" cy="514" r="2" style="fill:blue;"/><line x1="2675" y1="1008" x2="2688" y2="514"/><circle cx="2688" cy="514" r="2" style="fill:blue;"/><circle cx="2701" cy="933" r="2" style="fill:blue;"/><line x1="2688" y1="514" x2="2701" y2="933"/><circle cx="2701" cy="933" r="2" style="fill:blue;"/><circle cx="2714" cy="571" r="2" style="fill:blue;"/><line x1="2701" y1="933" x2="2714" y2="571"/><circle cx="2714" cy="571" r="2" style="fill:blue;"/><circle cx="2726" cy="409" r="2" style="fill:blue;"/><line x1="2714" y1="571" x2="2726" y2="409"/><circle cx="2726" cy="409" r="2" style="fill:blue;"/><circle cx="2739" cy="908" r="2" style="fill:blue;"/><line x1="2726" y1="409" x2="2739" y2="908"/><circle cx="2739" cy="908" r="2" style="fill:blue;"/><circle cx="2752" cy="83" r="2" style="fill:blue;"/><line x1="2739" y1="908" x2="2752" y2="83"/><circle cx="2752" cy="83" r="2" style="fill:blue;"/><circle cx="2765" cy="191" r="2" style="fill:blue;"/><line x1="2752" y1="83" x2="2765" y2="191"/><circle cx="2765" cy="191" r="2" style="fill:blue;"/><circle cx="2778" cy="600" r="2" style="fill:blue;"/><line x1="2765" y1="191" x2="2778" y2="600"/><circle cx="2778" cy="600" r="2" style="fill:blue;"/><circle cx="2790" cy="640" r="2" style="fill:blue;"/><line x1="2778" y1="600" x2="2790" y2="640"/><circle cx="2790" cy="640" r="2" style="fill:blue;"/><circle cx="2803" cy="702" r="2" style="fill:blue;"/><line x1="2790" y1="640" x2="2803" y2="702"/><circle cx="2803" cy="702" r="2" style="fill:blue;"/><circle cx="2816" cy="346" r="2" style="fill:blue;"/><line x1="2803" y1="702" x2="2816" y2="346"/><circle cx="2816" cy="346" r="2" style="fill:blue;"/><circle cx="2829" cy="340" r="2" style="fill:blue;"/><line x1="2816" y1="346" x2="2829" y2="340"/><circle cx="2829" cy="340" r="2" style="fill:blue;"/><circle cx="2842" cy="591" r="2" style="fill:blue;"/><line x1="2829" y1="340" x2="2842" y2="591"/><circle cx="2842" cy="591" r="2" style="fill:blue;"/><circle cx="2854" cy="177" r="2" style="fill:blue;"/><line x1="2842" y1="591" x2="2854" y2="177"/><circle cx="2854" cy="177" r="2" style="fill:blue;"/><circle cx="2867" cy="535" r="2" style="fill:blue;"/><line x1="2854" y1="177" x2="2867" y2="535"/><circle cx="2867" cy="535" r="2" style="fill:blue;"/><circle cx="2880" cy="942" r="2" style="fill:blue;"/><line x1="2867" y1="535" x2="2880" y2="942"/><circle cx="2880" cy="942" r="2" style="fill:blue;"/><circle cx="2893" cy="540" r="2" style="fill:blue;"/><line x1="2880" y1="942" x2="2893" y2="540"/><circle cx="2893" cy="540" r="2" style="fill:blue;"/><circle cx="2906" cy="28" r="2" style="fill:blue;"/><line x1="2893" y1="540" x2="2906" y2="28"/><circle cx="2906" cy="28" r="2" style="fill:blue;"/><circle cx="2918" cy="1105" r="2" style="fill:blue;"/><line x1="2906" y1="28" x2="2918" y2="1105"/><circle cx="2918" cy="1105" r="2" style="fill:blue;"/><circle cx="2931" cy="52" r="2" style="fill:blue;"/><line x1="2918" y1="1105" x2="2931" y2="52"/><circle cx="2931" cy="52" r="2" style="fill:blue;"/><circle cx="2944" cy="447" r="2" style="fill:blue;"/><line x1="2931" y1="52" x2="2944" y2="447"/><circle cx="2944" cy="447" r="2" style="fill:blue;"/><circle cx="2957" cy="1068" r="2" style="fill:blue;"/><line x1="2944" y1="447" x2="2957" y2="1068"/><circle cx="2957" cy="1068" r="2" style="fill:blue;"/><circle cx="2970" cy="513" r="2" style="fill:blue;"/><line x1="2957" y1="1068" x2="2970" y2="513"/><circle cx="2970" cy="513" r="2" style="fill:blue;"/><circle cx="2982" cy="616" r="2" style="fill:blue;"/><line x1="2970" y1="513" x2="2982" y2="616"/><circle cx="2982" cy="616" r="2" style="fill:blue;"/><circle cx="2995" cy="899" r="2" style="fill:blue;"/><line x1="2982" y1="616" x2="2995" y2="899"/><circle cx="2995" cy="899" r="2" style="fill:blue;"/><circle cx="3008" cy="505" r="2" style="fill:blue;"/><line x1="2995" y1="899" x2="3008" y2="505"/><circle cx="3008" cy="505" r="2" style="fill:blue;"/><circle cx="3021" cy="180" r="2" style="fill:blue;"/><line x1="3008" y1="505" x2="3021" y2="180"/><circle cx="3021" cy="180" r="2" style="fill:blue;"/><circle cx="3034" cy="1087" r="2" style="fill:blue;"/><line x1="3021" y1="180" x2="3034" y2="1087"/><circle cx="3034" cy="1087" r="2" style="fill:blue;"/><circle cx="3046" cy="960" r="2" style="fill:blue;"/><line x1="3034" y1="1087" x2="3046" y2="960"/><circle cx="3046" cy="960" r="2" style="fill:blue;"/><circle cx="3059" cy="1140" r="2" style="fill:blue;"/><line x1="3046" y1="960" x2="3059" y2="1140"/><circle cx="3059" cy="1140" r="2" style="fill:blue;"/><circle cx="3072" cy="513" r="2" style="fill:blue;"/><line x1="3059" y1="1140" x2="3072" y2="513"/><circle cx="3072" cy="513" r="2" style="fill:blue;"/><circle cx="3085" cy="1011" r="2" style="fill:blue;"/><line x1="3072" y1="513" x2="3085" y2="1011"/><circle cx="3085" cy="1011" r="2" style="fill:blue;"/><circle cx="3098" cy="91" r="2" style="fill:blue;"/><line x1="3085" y1="1011" x2="3098" y2="91"/><circle cx="3098" cy="91" r="2" style="fill:blue;"/><circle cx="3110" cy="771" r="2" style="fill:blue;"/><line x1="3098" y1="91" x2="3110" y2="771"/><circle cx="3110" cy="771" r="2" style="fill:blue;"/><circle cx="3123" cy="27" r="2" style="fill:blue;"/><line x1="3110" y1="771" x2="3123" y2="27"/><circle cx="3123" cy="27" r="2" style="fill:blue;"/><circle cx="3136" cy="846" r="2" style="fill:blue;"/><line x1="3123" y1="27" x2="3136" y2="846"/><circle cx="3136" cy="846" r="2" style="fill:blue;"/><circle cx="3149" cy="819" r="2" style="fill:blue;"/><line x1="3136" y1="846" x2="3149" y2="819"/><circle cx="3149" cy="819" r="2" style="fill:blue;"/><circle cx="3162" cy="72" r="2" style="fill:blue;"/><line x1="3149" y1="819" x2="3162" y2="72"/><circle cx="3162" cy="72" r="2" style="fill:blue;"/><circle cx="3174" cy="246" r="2" style="fill:blue;"/><line x1="3162" y1="72" x2="3174" y2="246"/><circle cx="3174" cy="246" r="2" style="fill:blue;"/><circle cx="3187" cy="311" r="2" style="fill:blue;"/><line x1="3174" y1="246" x2="3187" y2="311"/><circle cx="3187" cy="311" r="2" style="fill:blue;"/><circle cx="3200" cy="135" r="2" style="fill:blue;"/><line x1="3187" y1="311" x2="3200" y2="135"/></g></svg>